<svg xmlns="http://www.w3.org/2000/svg" viewBox="0 0 901 650.93"><defs><style>.cls-1{fill:none;}.cls-1,.cls-2{stroke:#fff;stroke-miterlimit:10;}.cls-2{fill:#374785;}</style></defs><g id="Layer_2" data-name="Layer 2"><g id="Layer_1-2" data-name="Layer 1"><polygon class="cls-1" points="572 130.35 550.58 142.77 1 461.36 326 650.36 900 318.36 572 130.35"/><line class="cls-1" x1="591.98" y1="141.81" x2="21" y2="472.99"/><line class="cls-1" x1="550.57" y1="142.77" x2="570.4" y2="154.33"/><line class="cls-1" x1="530.64" y1="154.33" x2="549.76" y2="166.3"/><line class="cls-1" x1="509.99" y1="166.3" x2="530.26" y2="177.61"/><polyline class="cls-1" points="406.85 249.19 550.58 332.1 736.36 224.56"/><line class="cls-1" x1="164.6" y1="556.5" x2="550.57" y2="332.1"/><polygon class="cls-2" points="447.5 249.85 447.5 84.17 591.98 0.58 692.5 60.85 692.5 224.56 550.58 310.05 447.5 249.85"/><polyline class="cls-2" points="447.5 84.17 550.58 142.77 550.58 310.05"/><line class="cls-2" x1="692.5" y1="60.85" x2="550.57" y2="142.77"/><polygon class="cls-2" points="59 475.36 59 403.49 406.85 202.08 509.99 260.75 509.99 332.1 162 533.36 59 475.36"/><polyline class="cls-2" points="162 533.36 162 462.36 509.99 260.75"/><line class="cls-2" x1="59" y1="403.49" x2="162" y2="462.35"/><polygon class="cls-2" points="837 333.1 837 308.36 714 237.35 202.5 533.36 202.5 556.5 324 628.24 837 333.1"/><polyline class="cls-2" points="837 308.36 324 605.7 202.5 533.36"/><line class="cls-2" x1="324" y1="628.24" x2="324" y2="605.7"/></g></g></svg>